<?xml version="1.0" encoding="UTF-8"?>
<svg id="compress-pdf_400x240" xmlns="http://www.w3.org/2000/svg" width="400" height="240" viewBox="0 0 400 240">
  <g id="Group_310687" data-name="Group 310687" transform="translate(1107.159 -185.706)">
    <g id="Group_155518" data-name="Group 155518" transform="translate(-860.496 395.062)">
      <path id="Line_6847" data-name="Line 6847" d="M-.142,3.426A1.358,1.358,0,0,1-1.5,2.068V-.142A1.358,1.358,0,0,1-.142-1.5,1.358,1.358,0,0,1,1.216-.142v2.21A1.358,1.358,0,0,1-.142,3.426Z" transform="translate(6.016 1.5)" fill="#b5e18f"/>
      <path id="Line_6848" data-name="Line 6848" d="M-.142,3.426A1.358,1.358,0,0,1-1.5,2.068V-.142A1.358,1.358,0,0,1-.142-1.5,1.358,1.358,0,0,1,1.216-.142v2.21A1.358,1.358,0,0,1-.142,3.426Z" transform="translate(6.016 8.323)" fill="#b5e18f"/>
      <path id="Line_6850" data-name="Line 6850" d="M1.358,4.926A1.358,1.358,0,0,1,0,3.568V1.358a1.358,1.358,0,1,1,2.716,0v2.21A1.358,1.358,0,0,1,1.358,4.926Z" transform="translate(11.748 4.516) rotate(90)" fill="#b5e18f"/>
      <path id="Line_6849" data-name="Line 6849" d="M1.358,4.926A1.358,1.358,0,0,1,0,3.568V1.358a1.358,1.358,0,1,1,2.716,0v2.21A1.358,1.358,0,0,1,1.358,4.926Z" transform="translate(4.926 4.516) rotate(90)" fill="#b5e18f"/>
    </g>
    <path id="Path_102727" data-name="Path 102727" d="M14.421,0A14.26,14.26,0,0,0,0,14.095V135.5a14.262,14.262,0,0,0,14.421,14.1H110.56a14.262,14.262,0,0,0,14.421-14.1V35.711a11.7,11.7,0,0,0-3.558-8.318L96.811,3.429A12.014,12.014,0,0,0,88.354,0Z" transform="translate(-1051.877 258.197) rotate(-1)" fill="#fee" style="isolation: isolate"/>
    <g id="Group_155656" data-name="Group 155656" transform="translate(-1073.379 202.706) rotate(3)">
      <rect id="Canvas" width="52.96" height="52.96" transform="translate(0 0.155)" fill="#ff13dc" opacity="0"/>
      <rect id="Rectangle_148642" data-name="Rectangle 148642" width="44.041" height="5.849" rx="0.5" transform="translate(0.272 45.165) rotate(-45)" fill="#fa1016"/>
      <path id="Path_101399" data-name="Path 101399" d="M6.846,0l.114,3.153A2.567,2.567,0,0,0,8.277,5.3l2.752,1.539-3.153.117A2.568,2.568,0,0,0,5.727,8.273L4.182,11.027,4.068,7.876A2.568,2.568,0,0,0,2.752,5.725L0,4.183l3.153-.11A2.572,2.572,0,0,0,5.3,2.754Z" transform="translate(39.224 19.681)" fill="#a0d5f7"/>
      <path id="Path_101400" data-name="Path 101400" d="M9.492,0l.158,4.372a3.563,3.563,0,0,0,1.82,2.98l3.824,2.136-4.372.158a3.559,3.559,0,0,0-2.982,1.82L5.8,15.284l-.159-4.372A3.568,3.568,0,0,0,3.822,7.93L0,5.794l4.372-.158A3.567,3.567,0,0,0,7.353,3.814Z" transform="translate(33.985 0)" fill="#fba868"/>
      <path id="Path_101401" data-name="Path 101401" d="M12.226,0l.2,5.632A4.589,4.589,0,0,0,14.77,9.47l4.914,2.751-5.632.2a4.59,4.59,0,0,0-3.84,2.34L7.464,19.689l-.209-5.632a4.59,4.59,0,0,0-2.34-3.84L0,7.464l5.632-.2a4.593,4.593,0,0,0,3.84-2.34Z" transform="translate(6.345 2.31)" fill="#b5e18f"/>
      <path id="Path_101544" data-name="Path 101544" d="M1.952,6.177,0,4.289l1.818-1.88L4.188,0,6.124,1.9,3.758,4.31Z" transform="translate(27.536 15.997)" fill="#fff"/>
    </g>
    <g id="Group_155517" data-name="Group 155517" transform="translate(-762.526 280.802)">
      <path id="Line_6847-2" data-name="Line 6847" d="M-.142,7.811A1.358,1.358,0,0,1-1.5,6.453V-.142A1.358,1.358,0,0,1-.142-1.5,1.358,1.358,0,0,1,1.216-.142V6.453A1.358,1.358,0,0,1-.142,7.811Z" transform="translate(12.124 1.5)" fill="#a0d5f7"/>
      <path id="Line_6848-2" data-name="Line 6848" d="M-.142,7.811A1.358,1.358,0,0,1-1.5,6.453V-.142A1.358,1.358,0,0,1-.142-1.5,1.358,1.358,0,0,1,1.216-.142V6.453A1.358,1.358,0,0,1-.142,7.811Z" transform="translate(12.124 16.154)" fill="#a0d5f7"/>
      <path id="Line_6850-2" data-name="Line 6850" d="M1.358,9.311A1.358,1.358,0,0,1,0,7.953V1.358a1.358,1.358,0,1,1,2.716,0V7.953A1.358,1.358,0,0,1,1.358,9.311Z" transform="translate(23.965 10.624) rotate(90)" fill="#a0d5f7"/>
      <path id="Line_6849-2" data-name="Line 6849" d="M1.358,9.311A1.358,1.358,0,0,1,0,7.953V1.358a1.358,1.358,0,1,1,2.716,0V7.953A1.358,1.358,0,0,1,1.358,9.311Z" transform="translate(9.311 10.624) rotate(90)" fill="#a0d5f7"/>
    </g>
    <g id="Group_156060" data-name="Group 156060" transform="translate(-780.908 270.417)">
      <path id="Line_6847-3" data-name="Line 6847" d="M-.142,3.626A1.358,1.358,0,0,1-1.5,2.268V-.142A1.358,1.358,0,0,1-.142-1.5,1.358,1.358,0,0,1,1.216-.142v2.41A1.358,1.358,0,0,1-.142,3.626Z" transform="translate(6.426 1.5)" fill="#fba868"/>
      <path id="Line_6848-3" data-name="Line 6848" d="M-.142,3.626A1.358,1.358,0,0,1-1.5,2.268V-.142A1.358,1.358,0,0,1-.142-1.5,1.358,1.358,0,0,1,1.216-.142v2.41A1.358,1.358,0,0,1-.142,3.626Z" transform="translate(6.426 8.94)" fill="#fba868"/>
      <path id="Line_6850-3" data-name="Line 6850" d="M1.358,5.126A1.358,1.358,0,0,1,0,3.768V1.358a1.358,1.358,0,1,1,2.716,0v2.41A1.358,1.358,0,0,1,1.358,5.126Z" transform="translate(12.566 4.925) rotate(90)" fill="#fba868"/>
      <path id="Line_6849-3" data-name="Line 6849" d="M1.358,5.126A1.358,1.358,0,0,1,0,3.768V1.358a1.358,1.358,0,1,1,2.716,0v2.41A1.358,1.358,0,0,1,1.358,5.126Z" transform="translate(5.126 4.925) rotate(90)" fill="#fba868"/>
    </g>
    <g id="Group_160104" data-name="Group 160104" transform="translate(-1030.483 237.789)">
      <g id="Group_160084" data-name="Group 160084" transform="translate(0 0)">
        <path id="Path_101389" data-name="Path 101389" d="M183,330.331V212.708a13.842,13.842,0,0,1,13.824-13.858h67.967a15.192,15.192,0,0,1,10.712,4.426l20.348,20.243a15.265,15.265,0,0,1,4.493,10.821v95.992a13.842,13.842,0,0,1-13.824,13.859h-89.7A13.842,13.842,0,0,1,183,330.331Z" transform="translate(-181.189 -197.039)" fill="#fff"/>
        <path id="Path_101389_-_Outline" data-name="Path 101389 - Outline" d="M286.332,345.811h-89.7A15.641,15.641,0,0,1,181,330.14V212.518a15.641,15.641,0,0,1,15.632-15.668H264.6a17,17,0,0,1,11.989,4.953l20.347,20.242a17.075,17.075,0,0,1,5.026,12.1v95.992a15.641,15.641,0,0,1-15.632,15.669Zm-89.7-145.34a12.032,12.032,0,0,0-12.014,12.045V330.142a12.032,12.032,0,0,0,12.016,12.048h89.69a12.032,12.032,0,0,0,12.016-12.046V234.15a13.454,13.454,0,0,0-3.96-9.538L274.037,204.37a13.381,13.381,0,0,0-9.436-3.9Z" transform="translate(-181 -196.85)" fill="#cacaca"/>
      </g>
      <path id="Path_102751" data-name="Path 102751" d="M206.971,254.217c-4.182,6.608-8.3,10.787-10.707,10.787a1.607,1.607,0,0,1-1.623-1.887C195.094,260.749,199.865,257.335,206.971,254.217Zm20.1-9.45c-1.8.368-3.654.8-5.537,1.285-1.352.352-2.725.735-4.1,1.145.731-1.463,1.4-2.914,1.983-4.292.769-1.822,1.492-3.645,2.157-5.432.582.9,1.187,1.771,1.8,2.611a52.354,52.354,0,0,0,3.838,4.644Zm-9.29-31.456a1.73,1.73,0,0,1,1.448-.917c1.584,0,1.929,1.873,1.929,3.44a42.218,42.218,0,0,1-2.075,10.884c-2.659-6.91-2.288-11.75-1.3-13.41Zm29.767,36.107c-.231,1.177-1.47,1.936-3.168,1.936a6.157,6.157,0,0,1-1.431-.175,23.493,23.493,0,0,1-9.076-4.508,45.824,45.824,0,0,1,6.715-.507,24.688,24.688,0,0,1,4.477.338c1.344.272,2.862,1,2.484,2.916Zm4.508-3.118c-1.983-2.082-5.775-3.149-11.27-3.149a60.6,60.6,0,0,0-9.1.777,44.706,44.706,0,0,1-5.243-6,54.862,54.862,0,0,1-3.281-5c1.934-5.975,2.917-10.833,2.917-14.429,0-4.418-1.783-9.143-6.789-9.143a5.052,5.052,0,0,0-4.19,2.429c-2.135,3.6-1.281,11,2.128,18.534-1.187,3.46-2.48,6.829-4.064,10.563a93.387,93.387,0,0,1-4.6,9.36c-5.1,2.019-15.957,6.91-16.991,12.312a4.526,4.526,0,0,0,1.485,4.306,6.536,6.536,0,0,0,4.423,1.548c6.536,0,13.053-8.88,17.442-16.523,2.492-.832,5.037-1.587,7.57-2.244,2.778-.724,5.464-1.315,8-1.756,6.92,5.925,13.072,6.823,16.156,6.823,4.236,0,5.821-1.8,6.4-3.317a5.011,5.011,0,0,0-.99-5.088Z" transform="translate(-161.775 -175.282)" fill="#fa0f00" fill-rule="evenodd"/>
      <path id="Path_102754" data-name="Path 102754" d="M86.8,1.216H-.142A1.358,1.358,0,0,1-1.5-.142,1.358,1.358,0,0,1-.142-1.5H86.8A1.358,1.358,0,0,1,88.163-.142,1.358,1.358,0,0,1,86.8,1.216Z" transform="translate(19.373 110.216)" fill="#cacaca"/>
      <path id="Path_102755" data-name="Path 102755" d="M86.8,1.216H-.142A1.358,1.358,0,0,1-1.5-.142,1.358,1.358,0,0,1-.142-1.5H86.8A1.358,1.358,0,0,1,88.163-.142,1.358,1.358,0,0,1,86.8,1.216Z" transform="translate(19.373 119.61)" fill="#cacaca"/>
    </g>
    <g id="Group_160105" data-name="Group 160105" transform="translate(-960.898 255.446)">
      <g id="Group_160084-2" data-name="Group 160084" transform="translate(0 0)" style="isolation: isolate">
        <path id="Path_101389-2" data-name="Path 101389" d="M183,315.3V211.124a12.26,12.26,0,0,1,12.244-12.274h60.2a13.455,13.455,0,0,1,9.487,3.92l18.021,17.93a13.519,13.519,0,0,1,3.983,9.584V315.3a12.26,12.26,0,0,1-12.244,12.274H195.244A12.26,12.26,0,0,1,183,315.3Z" transform="translate(-181.189 -197.039)" fill="#fff"/>
        <path id="Path_101389_-_Outline-2" data-name="Path 101389 - Outline" d="M274.5,329.193h-79.45A14.07,14.07,0,0,1,181,315.107V210.934a14.07,14.07,0,0,1,14.052-14.084h60.2a15.266,15.266,0,0,1,10.765,4.447l18.021,17.929a15.329,15.329,0,0,1,4.517,10.868v85.015A14.071,14.071,0,0,1,274.5,329.193ZM255.253,200.471h-60.2a10.449,10.449,0,0,0-10.433,10.461V315.109a10.449,10.449,0,0,0,10.436,10.463H274.5a10.449,10.449,0,0,0,10.433-10.461V230.094a11.708,11.708,0,0,0-3.45-8.3l-18.021-17.93a11.644,11.644,0,0,0-8.211-3.393Z" transform="translate(-181 -196.85)" fill="#d2f1f3"/>
      </g>
      <path id="Path_102754-2" data-name="Path 102754" d="M76.864,1.216H-.142A1.358,1.358,0,0,1-1.5-.142,1.358,1.358,0,0,1-.142-1.5H76.864A1.358,1.358,0,0,1,78.222-.142,1.358,1.358,0,0,1,76.864,1.216Z" transform="translate(17.382 92.644)" fill="#d2f1f3"/>
      <path id="Path_102755-2" data-name="Path 102755" d="M76.864,1.216H-.142A1.358,1.358,0,0,1-1.5-.142,1.358,1.358,0,0,1-.142-1.5H76.864A1.358,1.358,0,0,1,78.222-.142,1.358,1.358,0,0,1,76.864,1.216Z" transform="translate(17.382 100.966)" fill="#d2f1f3"/>
    </g>
    <g id="Group_160106" data-name="Group 160106" transform="translate(-904.658 271.609)">
      <g id="Group_160084-3" data-name="Group 160084" transform="translate(0 0)">
        <path id="Path_101389-3" data-name="Path 101389" d="M183,300.676V209.582a10.8,10.8,0,0,1,10.869-10.732h53.439a12.04,12.04,0,0,1,8.419,3.427l16,15.678a11.733,11.733,0,0,1,3.531,8.38v74.339a10.8,10.8,0,0,1-10.869,10.732h-70.52A10.8,10.8,0,0,1,183,300.676Z" transform="translate(-181.189 -197.039)" fill="#fff"/>
        <path id="Path_101389_-_Outline-3" data-name="Path 101389 - Outline" d="M264.267,313.028H193.611A12.613,12.613,0,0,1,181,300.5s0-.008,0-.012V209.392s0-.008,0-.012a12.613,12.613,0,0,1,12.686-12.531h53.44a13.85,13.85,0,0,1,9.678,3.943l16,15.68a13.544,13.544,0,0,1,4.074,9.672v74.341s0,.008,0,.012a12.613,12.613,0,0,1-12.611,12.531Zm-70.588-3.621h70.588a8.992,8.992,0,0,0,8.99-8.929V226.146a9.923,9.923,0,0,0-2.986-7.085l-16-15.68a10.172,10.172,0,0,0-7.146-2.91H193.611a8.992,8.992,0,0,0-8.99,8.929v91.079a8.992,8.992,0,0,0,8.99,8.928h.067Z" transform="translate(-181 -196.85)" fill="#98e0e3"/>
      </g>
      <path id="Path_102754-3" data-name="Path 102754" d="M64.946,1.216H-.142A1.358,1.358,0,0,1-1.5-.142,1.358,1.358,0,0,1-.142-1.5H64.946A1.358,1.358,0,0,1,66.3-.142,1.358,1.358,0,0,1,64.946,1.216Z" transform="translate(17.002 77.489)" fill="#98e0e3"/>
      <path id="Path_102755-3" data-name="Path 102755" d="M64.946,1.216H-.142A1.358,1.358,0,0,1-1.5-.142,1.358,1.358,0,0,1-.142-1.5H64.946A1.358,1.358,0,0,1,66.3-.142,1.358,1.358,0,0,1,64.946,1.216Z" transform="translate(17.002 84.764)" fill="#98e0e3"/>
    </g>
    <g id="Group_160107" data-name="Group 160107" transform="translate(-851.344 291.343)">
      <g id="Group_160084-4" data-name="Group 160084" transform="translate(0 0)">
        <path id="Path_101389-4" data-name="Path 101389" d="M183,282.947V207.713a8.854,8.854,0,0,1,8.842-8.863h43.473a9.717,9.717,0,0,1,6.851,2.831l13.015,12.945a9.763,9.763,0,0,1,2.873,6.921v61.4a8.854,8.854,0,0,1-8.842,8.863h-57.37a8.854,8.854,0,0,1-8.843-8.86Z" transform="translate(-181.189 -197.039)" fill="#2ec0c7"/>
        <path id="Path_101389_-_Outline-4" data-name="Path 101389 - Outline" d="M249.026,293.428H191.653A10.665,10.665,0,0,1,181,282.756V207.524a10.665,10.665,0,0,1,10.65-10.674h43.476a11.527,11.527,0,0,1,8.128,3.358l13.014,12.945a11.574,11.574,0,0,1,3.407,8.205v61.4a10.665,10.665,0,0,1-10.65,10.674Zm-57.374-92.957a7.052,7.052,0,0,0-7.031,7.051v75.235a7.053,7.053,0,0,0,7.034,7.049h57.365a7.052,7.052,0,0,0,7.034-7.051v-61.4a8.006,8.006,0,0,0-2.34-5.638L240.7,202.775a7.857,7.857,0,0,0-5.575-2.3Z" transform="translate(-181 -196.85)" fill="#2ec0c7"/>
      </g>
      <path id="Path_102754-4" data-name="Path 102754" d="M55.47,1.216H-.142A1.358,1.358,0,0,1-1.5-.142,1.358,1.358,0,0,1-.142-1.5H55.47A1.358,1.358,0,0,1,56.828-.142,1.358,1.358,0,0,1,55.47,1.216Z" transform="translate(12.056 58.736)" fill="#fff"/>
      <path id="Path_102755-4" data-name="Path 102755" d="M55.47,1.216H-.142A1.358,1.358,0,0,1-1.5-.142,1.358,1.358,0,0,1-.142-1.5H55.47A1.358,1.358,0,0,1,56.828-.142,1.358,1.358,0,0,1,55.47,1.216Z" transform="translate(12.056 64.745)" fill="#fff"/>
    </g>
  </g>
  <rect id="Rectangle_248077" data-name="Rectangle 248077" width="400" height="240" opacity="0"/>
</svg>
